<?xml version="1.0" encoding="utf-8" ?>
<svg baseProfile="full" height="1200" version="1.1" width="12800" xmlns="http://www.w3.org/2000/svg" xmlns:ev="http://www.w3.org/2001/xml-events" xmlns:xlink="http://www.w3.org/1999/xlink"><defs /><line stroke="rgb(230,18,100)" stroke-width="1" x1="-100" x2="13900.0" y1="10" y2="10.0" /><line stroke="rgb(231,30,108)" stroke-width="1" x1="-75" x2="13924.466922898398" y1="10" y2="132.17149697723508" /><line stroke="rgb(232,42,116)" stroke-width="1" x1="-50" x2="13947.867732189477" y1="10" y2="254.33369012196917" /><line stroke="rgb(233,55,124)" stroke-width="1" x1="-25" x2="13970.2025496578" y1="10" y2="376.4772763102241" /><line stroke="rgb(235,67,132)" stroke-width="1" x1="0" x2="13991.471578267341" y1="10" y2="498.5929538350136" /><line stroke="rgb(236,80,140)" stroke-width="1" x1="25" x2="14011.67510214601" y1="10" y2="620.671423114704" /><line stroke="rgb(237,92,148)" stroke-width="1" x1="50" x2="14030.813486564033" y1="10" y2="742.7033874012137" /><line stroke="rgb(239,105,157)" stroke-width="1" x1="75" x2="14048.887177906137" y1="10" y2="864.6795534879963" /><line stroke="rgb(240,117,165)" stroke-width="1" x1="100" x2="14065.896703637538" y1="10" y2="986.5906324177543" /><line stroke="rgb(241,130,173)" stroke-width="1" x1="125" x2="14081.842672263792" y1="10" y2="1108.4273401898292" /><line stroke="rgb(243,142,181)" stroke-width="1" x1="150" x2="14096.725773284437" y1="10" y2="1230.1803984672142" /><line stroke="rgb(244,155,189)" stroke-width="1" x1="175" x2="14110.546777140504" y1="10" y2="1351.8405352831358" /><line stroke="rgb(245,167,197)" stroke-width="1" x1="200" x2="14123.306535155825" y1="10" y2="1473.3984857471487" /><line stroke="rgb(247,180,206)" stroke-width="1" x1="225" x2="14135.005979472224" y1="10" y2="1594.844992750694" /><line stroke="rgb(248,192,214)" stroke-width="1" x1="250" x2="14145.646122978507" y1="10" y2="1716.1708076720647" /><line stroke="rgb(249,205,222)" stroke-width="1" x1="275" x2="14155.228059233345" y1="10" y2="1837.366691080722" /><line stroke="rgb(251,217,230)" stroke-width="1" x1="300" x2="14163.752962381985" y1="10" y2="1958.4234134409162" /><line stroke="rgb(252,230,238)" stroke-width="1" x1="325" x2="14171.222087066835" y1="10" y2="2079.3317558145486" /><line stroke="rgb(253,242,246)" stroke-width="1" x1="350" x2="14177.63676833193" y1="10" y2="2200.082510563232" /><line stroke="rgb(255,255,255)" stroke-width="1" x1="375" x2="14182.99842152124" y1="10" y2="2320.666482049487" /></svg>