<?xml version="1.0" encoding="UTF-8" standalone="no"?>
<!-- Created with Inkscape (http://www.inkscape.org/) -->

<svg
   width="35.521732mm"
   height="40.999893mm"
   viewBox="0 0 35.521733 40.999893"
   version="1.1"
   id="svg1"
   xml:space="preserve"
   inkscape:version="1.4 (e7c3feb100, 2024-10-09)"
   sodipodi:docname="logo_light.svg"
   inkscape:export-filename="logo_light.png"
   inkscape:export-xdpi="96"
   inkscape:export-ydpi="96"
   xmlns:inkscape="http://www.inkscape.org/namespaces/inkscape"
   xmlns:sodipodi="http://sodipodi.sourceforge.net/DTD/sodipodi-0.dtd"
   xmlns="http://www.w3.org/2000/svg"
   xmlns:svg="http://www.w3.org/2000/svg">
                    <style>
                        path, rect, circle, ellipse, line, polyline, polygon { 
                            fill: currentColor;
                        }
                        @media (prefers-color-scheme: dark) {
                            path, rect, circle, ellipse, line, polyline, polygon { 
                                fill: #fff;
                            }
                        }
                    </style><sodipodi:namedview
     id="namedview1"
     pagecolor="#ffffff"
     bordercolor="#000000"
     borderopacity="0.25"
     inkscape:showpageshadow="2"
     inkscape:pageopacity="0.0"
     inkscape:pagecheckerboard="0"
     inkscape:deskcolor="#d1d1d1"
     inkscape:document-units="mm"
     showgrid="true"
     inkscape:zoom="1"
     inkscape:cx="192"
     inkscape:cy="-128"
     inkscape:window-width="2560"
     inkscape:window-height="1372"
     inkscape:window-x="3840"
     inkscape:window-y="0"
     inkscape:window-maximized="1"
     inkscape:current-layer="g2"><inkscape:grid
       id="grid1"
       units="mm"
       originx="-33.832626"
       originy="-125.02123"
       spacingx="0.26458333"
       spacingy="0.26458334"
       empcolor="#0099e5"
       empopacity="0.30196078"
       color="#0099e5"
       opacity="0.14901961"
       empspacing="5"
       enabled="true"
       visible="true" /></sodipodi:namedview><defs
     id="defs1"><clipPath
       id="c11f9d8948"><path
         d="M 31,124 H 141 V 251 H 31 Z m 0,0"
         clip-rule="nonzero"
         id="path1" /></clipPath><clipPath
       id="d63d5cce61"><path
         d="M 58.867188,109.21875 167.28906,171.92578 112.84375,266.06641 4.417969,203.35937 Z m 0,0"
         clip-rule="nonzero"
         id="path2" /></clipPath><clipPath
       id="aba1a44474"><path
         d="M 58.867188,109.21875 167.28906,171.92578 112.84375,266.06641 4.417969,203.35937 Z m 0,0"
         clip-rule="nonzero"
         id="path3" /></clipPath><clipPath
       id="de21c5d68f"><path
         d="m 91.828125,156.50781 h 38.726565 v 60.3125 H 91.828125 Z m 0,0"
         clip-rule="nonzero"
         id="path4" /></clipPath><clipPath
       id="75613ffed8"><path
         d="M 41.304688,206 H 107 v 27 H 41.304688 Z m 0,0"
         clip-rule="nonzero"
         id="path5" /></clipPath><clipPath
       id="32f2422c65"><path
         d="m 64.777344,142.84375 h 65.777346 v 25.94922 H 64.777344 Z m 0,0"
         clip-rule="nonzero"
         id="path6" /></clipPath><clipPath
       id="9456a52fdf"><path
         d="M 41.304688,158 H 81 v 61 H 41.304688 Z m 0,0"
         clip-rule="nonzero"
         id="path7" /></clipPath><clipPath
       id="92a1979a7d"><path
         d="m 80,178.86719 h 38.87891 v 59.96484 H 80 Z m 0,0"
         clip-rule="nonzero"
         id="path8" /></clipPath><clipPath
       id="0ea8c598e6"><path
         d="M 53,136.08203 H 92 V 197 H 53 Z m 0,0"
         clip-rule="nonzero"
         id="path9" /></clipPath><g
       id="g1" /><clipPath
       id="47f25f595e"><path
         d="M 31,124 H 141 V 251 H 31 Z m 0,0"
         clip-rule="nonzero"
         id="path1-5" /></clipPath><clipPath
       id="db27e28427"><path
         d="M 58.867188,109.21875 167.28906,171.92578 112.84375,266.06641 4.417969,203.35937 Z m 0,0"
         clip-rule="nonzero"
         id="path2-3" /></clipPath><clipPath
       id="6e03e406ab"><path
         d="M 58.867188,109.21875 167.28906,171.92578 112.84375,266.06641 4.417969,203.35937 Z m 0,0"
         clip-rule="nonzero"
         id="path3-5" /></clipPath><clipPath
       id="012158efbb"><path
         d="m 91.828125,156.50781 h 38.726565 v 60.3125 H 91.828125 Z m 0,0"
         clip-rule="nonzero"
         id="path4-6" /></clipPath><clipPath
       id="386e129daa"><path
         d="M 41.304688,206 H 107 v 27 H 41.304688 Z m 0,0"
         clip-rule="nonzero"
         id="path5-2" /></clipPath><clipPath
       id="03d88c5475"><path
         d="m 64.777344,142.84375 h 65.777346 v 25.94922 H 64.777344 Z m 0,0"
         clip-rule="nonzero"
         id="path6-9" /></clipPath><clipPath
       id="23f8fdfec9"><path
         d="M 41.304688,158 H 81 v 61 H 41.304688 Z m 0,0"
         clip-rule="nonzero"
         id="path7-1" /></clipPath><clipPath
       id="a47125a5ff"><path
         d="m 80,178.86719 h 38.87891 v 59.96484 H 80 Z m 0,0"
         clip-rule="nonzero"
         id="path8-2" /></clipPath><clipPath
       id="f3ed14d75d"><path
         d="M 53,136.08203 H 92 V 197 H 53 Z m 0,0"
         clip-rule="nonzero"
         id="path9-7" /></clipPath><clipPath
       id="db27e28427-6"><path
         d="M 58.867188,109.21875 167.28906,171.92578 112.84375,266.06641 4.417969,203.35937 Z m 0,0"
         clip-rule="nonzero"
         id="path2-3-5" /></clipPath><clipPath
       id="6e03e406ab-6"><path
         d="M 58.867188,109.21875 167.28906,171.92578 112.84375,266.06641 4.417969,203.35937 Z m 0,0"
         clip-rule="nonzero"
         id="path3-5-9" /></clipPath><clipPath
       clipPathUnits="userSpaceOnUse"
       id="clipPath20"><path
         d="M 31.000003,124 H 141 V 251 H 31.000003 Z m 0,0"
         clip-rule="nonzero"
         id="path20"
         style="stroke-width:0.999999" /></clipPath><clipPath
       id="012158efbb-4"><path
         d="m 91.828125,156.50781 h 38.726565 v 60.3125 H 91.828125 Z m 0,0"
         clip-rule="nonzero"
         id="path4-6-4" /></clipPath><clipPath
       id="386e129daa-3"><path
         d="M 41.304688,206 H 107 v 27 H 41.304688 Z m 0,0"
         clip-rule="nonzero"
         id="path5-2-0" /></clipPath><clipPath
       id="03d88c5475-7"><path
         d="m 64.777344,142.84375 h 65.777346 v 25.94922 H 64.777344 Z m 0,0"
         clip-rule="nonzero"
         id="path6-9-8" /></clipPath><clipPath
       id="23f8fdfec9-6"><path
         d="M 41.304688,158 H 81 v 61 H 41.304688 Z m 0,0"
         clip-rule="nonzero"
         id="path7-1-8" /></clipPath><clipPath
       id="a47125a5ff-8"><path
         d="m 80,178.86719 h 38.87891 v 59.96484 H 80 Z m 0,0"
         clip-rule="nonzero"
         id="path8-2-4" /></clipPath><clipPath
       id="f3ed14d75d-3"><path
         d="M 53,136.08203 H 92 V 197 H 53 Z m 0,0"
         clip-rule="nonzero"
         id="path9-7-1" /></clipPath><clipPath
       id="012158efbb-4-7"><path
         d="m 91.828125,156.50781 h 38.726565 v 60.3125 H 91.828125 Z m 0,0"
         clip-rule="nonzero"
         id="path4-6-4-1" /></clipPath><clipPath
       id="012158efbb-6"><path
         d="m 91.828125,156.50781 h 38.726565 v 60.3125 H 91.828125 Z m 0,0"
         clip-rule="nonzero"
         id="path4-6-7" /></clipPath></defs><g
     inkscape:label="Layer 1"
     inkscape:groupmode="layer"
     id="layer1"
     transform="translate(-33.832625,-125.02123)"><g
       id="g2"
       transform="matrix(0.35277778,0,0,0.35277778,20.803205,78.433803)"><g
         id="g3"
         transform="matrix(0.97643377,0,0,0.97643377,0.96597271,0.93591232)"><g
           clip-path="url(#386e129daa-3)"
           id="g14-2-6"
           transform="translate(163.7073,126.13379)" /><g
           clip-path="url(#03d88c5475-7)"
           id="g15-1-9"
           transform="translate(163.7073,126.13379)" /><g
           clip-path="url(#23f8fdfec9-6)"
           id="g16-7-6"
           transform="translate(163.7073,126.13379)" /><g
           clip-path="url(#a47125a5ff-8)"
           id="g17-2-4"
           transform="translate(163.7073,126.13379)" /><g
           clip-path="url(#f3ed14d75d-3)"
           id="g18-2-5"
           transform="translate(163.7073,126.13379)" /><g
           id="g43"
           transform="translate(-46.086069,-253.75074)"><g
             id="g44"><path
               id="path22-6"
               style="fill:#000000;fill-opacity:1;stroke:none;stroke-width:0.416764;stroke-linecap:round;stroke-dasharray:none;stroke-opacity:1"
               d="m 134.48381,388.03832 -51.561842,29.75481 v 59.51355 l 51.561842,29.75678 51.55987,-29.75678 v -59.51355 z m 0,10.75175 42.24533,24.37993 v 48.75983 L 134.48381,496.3117 92.236507,471.92983 V 423.17 Z" /><path
               style="fill:#e61264;fill-opacity:1;stroke:none;stroke-width:0.290306;stroke-linecap:round;stroke-linejoin:miter;stroke-dasharray:none;stroke-opacity:1"
               d="m 176.83566,434.70884 v 37.35791 l -5.48322,3.16464 v -37.48316 l -32.24855,-18.62234 5.36501,-3.09602 z"
               id="path25" /><path
               style="fill:#e61264;fill-opacity:1;stroke:none;stroke-width:0.290306;stroke-linecap:round;stroke-linejoin:miter;stroke-dasharray:none;stroke-opacity:1"
               d="m 144.37624,404.0144 32.3529,18.67895 -9.5e-4,6.33093 -32.46137,-18.74158 -32.2517,18.6169 0.001,-6.19425 z"
               id="path25-1" /><path
               style="fill:#e61264;fill-opacity:1;stroke:none;stroke-width:0.290306;stroke-linecap:round;stroke-linejoin:miter;stroke-dasharray:none;stroke-opacity:1"
               d="m 102.13092,417.46903 32.35289,-18.67896 5.48228,3.16629 -32.46137,18.74158 -0.003,37.23924 -5.36387,-3.09799 z"
               id="path25-1-0" /><path
               style="fill:#e61264;fill-opacity:1;stroke:none;stroke-width:0.290306;stroke-linecap:round;stroke-linejoin:miter;stroke-dasharray:none;stroke-opacity:1"
               d="m 92.236517,460.52791 -1e-5,-37.35791 5.483232,-3.16465 v 37.48317 l 32.248621,18.62221 -5.36487,3.09625 z"
               id="path25-1-0-9" /><path
               style="fill:#e61264;fill-opacity:1;stroke:none;stroke-width:0.290306;stroke-linecap:round;stroke-linejoin:miter;stroke-dasharray:none;stroke-opacity:1"
               d="m 124.58942,490.60877 -32.352913,-18.67894 9.6e-4,-6.33095 32.461373,18.74158 32.25162,-18.61702 -0.001,6.19424 z"
               id="path25-1-0-9-6" /><path
               style="fill:#e61264;fill-opacity:1;stroke:none;stroke-width:0.290306;stroke-linecap:round;stroke-linejoin:miter;stroke-dasharray:none;stroke-opacity:1"
               d="m 166.8367,477.63273 -32.35289,18.67897 -5.48229,-3.16629 32.46138,-18.74159 0.003,-37.23923 5.36387,3.09799 z"
               id="path25-1-0-9-8" /></g></g></g></g></g></svg>
